<mxfile host="app.diagrams.net" modified="2024-07-03T19:27:58.937Z" agent="Mozilla/5.0 (Windows NT 10.0; Win64; x64) AppleWebKit/537.36 (KHTML, like Gecko) Chrome/126.0.0.0 Safari/537.36" etag="7M2gmSoI0g1Xe3WXtN6e" version="24.6.4" type="device">
  <diagram id="C5RBs43oDa-KdzZeNtuy" name="Page-1">
    <mxGraphModel dx="1290" dy="655" grid="1" gridSize="10" guides="1" tooltips="1" connect="1" arrows="1" fold="1" page="1" pageScale="1" pageWidth="827" pageHeight="1169" math="0" shadow="0">
      <root>
        <mxCell id="WIyWlLk6GJQsqaUBKTNV-0" />
        <mxCell id="WIyWlLk6GJQsqaUBKTNV-1" parent="WIyWlLk6GJQsqaUBKTNV-0" />
        <mxCell id="e808V6CF4RWKdssIjrf6-86" value="" style="rounded=1;whiteSpace=wrap;html=1;dashed=1;glass=0;strokeWidth=1;fillOpacity=0;" vertex="1" parent="WIyWlLk6GJQsqaUBKTNV-1">
          <mxGeometry x="50" y="2471" width="730" height="810" as="geometry" />
        </mxCell>
        <mxCell id="e808V6CF4RWKdssIjrf6-63" value="" style="rounded=1;whiteSpace=wrap;html=1;dashed=1;glass=0;strokeWidth=1;fillOpacity=0;" vertex="1" parent="WIyWlLk6GJQsqaUBKTNV-1">
          <mxGeometry x="50" y="1641" width="730" height="810" as="geometry" />
        </mxCell>
        <mxCell id="e808V6CF4RWKdssIjrf6-17" value="" style="rounded=1;whiteSpace=wrap;html=1;dashed=1;glass=0;strokeWidth=1;fillOpacity=0;" vertex="1" parent="WIyWlLk6GJQsqaUBKTNV-1">
          <mxGeometry x="50" y="201" width="730" height="710" as="geometry" />
        </mxCell>
        <mxCell id="e808V6CF4RWKdssIjrf6-18" value="Step 1: Initialization -&lt;br&gt;Create a population of N elements with randomly generated DNA" style="rounded=1;whiteSpace=wrap;html=1;fontSize=12;glass=0;strokeWidth=1;shadow=0;" vertex="1" parent="WIyWlLk6GJQsqaUBKTNV-1">
          <mxGeometry x="97" y="221" width="180" height="60" as="geometry" />
        </mxCell>
        <mxCell id="e808V6CF4RWKdssIjrf6-27" style="edgeStyle=none;curved=1;rounded=0;orthogonalLoop=1;jettySize=auto;html=1;exitX=0.5;exitY=1;exitDx=0;exitDy=0;entryX=0.5;entryY=0;entryDx=0;entryDy=0;fontSize=12;startSize=8;endSize=8;" edge="1" parent="WIyWlLk6GJQsqaUBKTNV-1" source="e808V6CF4RWKdssIjrf6-19" target="e808V6CF4RWKdssIjrf6-20">
          <mxGeometry relative="1" as="geometry" />
        </mxCell>
        <mxCell id="e808V6CF4RWKdssIjrf6-19" value="int N;" style="rounded=0;whiteSpace=wrap;html=1;" vertex="1" parent="WIyWlLk6GJQsqaUBKTNV-1">
          <mxGeometry x="332" y="251" width="120" height="60" as="geometry" />
        </mxCell>
        <mxCell id="e808V6CF4RWKdssIjrf6-28" style="edgeStyle=none;curved=1;rounded=0;orthogonalLoop=1;jettySize=auto;html=1;exitX=0.5;exitY=1;exitDx=0;exitDy=0;entryX=0.5;entryY=0;entryDx=0;entryDy=0;fontSize=12;startSize=8;endSize=8;" edge="1" parent="WIyWlLk6GJQsqaUBKTNV-1" source="e808V6CF4RWKdssIjrf6-20" target="e808V6CF4RWKdssIjrf6-21">
          <mxGeometry relative="1" as="geometry" />
        </mxCell>
        <mxCell id="e808V6CF4RWKdssIjrf6-20" value="Elem_Obj_Type curent_population[] = {};" style="rounded=0;whiteSpace=wrap;html=1;" vertex="1" parent="WIyWlLk6GJQsqaUBKTNV-1">
          <mxGeometry x="277" y="341" width="230" height="60" as="geometry" />
        </mxCell>
        <mxCell id="e808V6CF4RWKdssIjrf6-29" style="edgeStyle=none;curved=1;rounded=0;orthogonalLoop=1;jettySize=auto;html=1;exitX=0.5;exitY=1;exitDx=0;exitDy=0;entryX=0.5;entryY=0;entryDx=0;entryDy=0;fontSize=12;startSize=8;endSize=8;" edge="1" parent="WIyWlLk6GJQsqaUBKTNV-1" source="e808V6CF4RWKdssIjrf6-21" target="e808V6CF4RWKdssIjrf6-22">
          <mxGeometry relative="1" as="geometry" />
        </mxCell>
        <mxCell id="e808V6CF4RWKdssIjrf6-21" value="int i = 0;" style="rounded=0;whiteSpace=wrap;html=1;" vertex="1" parent="WIyWlLk6GJQsqaUBKTNV-1">
          <mxGeometry x="332" y="431" width="120" height="60" as="geometry" />
        </mxCell>
        <mxCell id="e808V6CF4RWKdssIjrf6-25" style="edgeStyle=none;curved=1;rounded=0;orthogonalLoop=1;jettySize=auto;html=1;exitX=0.5;exitY=1;exitDx=0;exitDy=0;entryX=0.5;entryY=0;entryDx=0;entryDy=0;fontSize=12;startSize=8;endSize=8;" edge="1" parent="WIyWlLk6GJQsqaUBKTNV-1" source="e808V6CF4RWKdssIjrf6-22" target="e808V6CF4RWKdssIjrf6-23">
          <mxGeometry relative="1" as="geometry" />
        </mxCell>
        <mxCell id="e808V6CF4RWKdssIjrf6-36" style="edgeStyle=orthogonalEdgeStyle;rounded=0;orthogonalLoop=1;jettySize=auto;html=1;exitX=1;exitY=0.5;exitDx=0;exitDy=0;entryX=0.5;entryY=0;entryDx=0;entryDy=0;fontSize=12;startSize=8;endSize=8;" edge="1" parent="WIyWlLk6GJQsqaUBKTNV-1" source="e808V6CF4RWKdssIjrf6-22" target="e808V6CF4RWKdssIjrf6-35">
          <mxGeometry relative="1" as="geometry">
            <Array as="points">
              <mxPoint x="590" y="566" />
              <mxPoint x="590" y="851" />
              <mxPoint x="392" y="851" />
            </Array>
          </mxGeometry>
        </mxCell>
        <mxCell id="e808V6CF4RWKdssIjrf6-22" value="i &amp;lt; N" style="rhombus;whiteSpace=wrap;html=1;" vertex="1" parent="WIyWlLk6GJQsqaUBKTNV-1">
          <mxGeometry x="352" y="525.5" width="80" height="80" as="geometry" />
        </mxCell>
        <mxCell id="e808V6CF4RWKdssIjrf6-30" style="edgeStyle=none;curved=1;rounded=0;orthogonalLoop=1;jettySize=auto;html=1;exitX=0.5;exitY=1;exitDx=0;exitDy=0;fontSize=12;startSize=8;endSize=8;" edge="1" parent="WIyWlLk6GJQsqaUBKTNV-1" source="e808V6CF4RWKdssIjrf6-23" target="e808V6CF4RWKdssIjrf6-24">
          <mxGeometry relative="1" as="geometry" />
        </mxCell>
        <mxCell id="e808V6CF4RWKdssIjrf6-23" value="current_population[i] = &lt;br&gt;new Elem_Obj_type(new DNA());" style="rounded=0;whiteSpace=wrap;html=1;" vertex="1" parent="WIyWlLk6GJQsqaUBKTNV-1">
          <mxGeometry x="258" y="641" width="268" height="60" as="geometry" />
        </mxCell>
        <mxCell id="e808V6CF4RWKdssIjrf6-31" style="edgeStyle=orthogonalEdgeStyle;rounded=0;orthogonalLoop=1;jettySize=auto;html=1;exitX=0.5;exitY=1;exitDx=0;exitDy=0;entryX=0;entryY=0.5;entryDx=0;entryDy=0;fontSize=12;startSize=8;endSize=8;" edge="1" parent="WIyWlLk6GJQsqaUBKTNV-1" source="e808V6CF4RWKdssIjrf6-24" target="e808V6CF4RWKdssIjrf6-22">
          <mxGeometry relative="1" as="geometry">
            <Array as="points">
              <mxPoint x="392" y="811" />
              <mxPoint x="210" y="811" />
              <mxPoint x="210" y="566" />
            </Array>
          </mxGeometry>
        </mxCell>
        <mxCell id="e808V6CF4RWKdssIjrf6-24" value="i++;" style="rounded=0;whiteSpace=wrap;html=1;" vertex="1" parent="WIyWlLk6GJQsqaUBKTNV-1">
          <mxGeometry x="332" y="731" width="120" height="60" as="geometry" />
        </mxCell>
        <mxCell id="e808V6CF4RWKdssIjrf6-26" value="No" style="text;html=1;align=center;verticalAlign=middle;resizable=0;points=[];autosize=1;strokeColor=none;fillColor=none;fontSize=16;" vertex="1" parent="WIyWlLk6GJQsqaUBKTNV-1">
          <mxGeometry x="352" y="605.5" width="40" height="30" as="geometry" />
        </mxCell>
        <mxCell id="e808V6CF4RWKdssIjrf6-32" value="" style="rounded=1;whiteSpace=wrap;html=1;dashed=1;glass=0;strokeWidth=1;fillOpacity=0;" vertex="1" parent="WIyWlLk6GJQsqaUBKTNV-1">
          <mxGeometry x="50" y="941" width="730" height="680" as="geometry" />
        </mxCell>
        <mxCell id="e808V6CF4RWKdssIjrf6-34" value="Step 1.5 (optional): Simulation - &lt;br&gt;Simulate the elements for N amounts of frames." style="rounded=1;whiteSpace=wrap;html=1;fontSize=12;glass=0;strokeWidth=1;shadow=0;" vertex="1" parent="WIyWlLk6GJQsqaUBKTNV-1">
          <mxGeometry x="90" y="961" width="180" height="60" as="geometry" />
        </mxCell>
        <mxCell id="e808V6CF4RWKdssIjrf6-42" style="edgeStyle=none;curved=1;rounded=0;orthogonalLoop=1;jettySize=auto;html=1;exitX=0.5;exitY=1;exitDx=0;exitDy=0;fontSize=12;startSize=8;endSize=8;" edge="1" parent="WIyWlLk6GJQsqaUBKTNV-1" source="e808V6CF4RWKdssIjrf6-35" target="e808V6CF4RWKdssIjrf6-41">
          <mxGeometry relative="1" as="geometry" />
        </mxCell>
        <mxCell id="e808V6CF4RWKdssIjrf6-35" value="int total_frames;&lt;br&gt;int current_frame = 0;&lt;div&gt;int elem_iter;&lt;/div&gt;" style="rounded=0;whiteSpace=wrap;html=1;" vertex="1" parent="WIyWlLk6GJQsqaUBKTNV-1">
          <mxGeometry x="332" y="971" width="120" height="60" as="geometry" />
        </mxCell>
        <mxCell id="e808V6CF4RWKdssIjrf6-37" value="Yes" style="text;html=1;align=center;verticalAlign=middle;resizable=0;points=[];autosize=1;strokeColor=none;fillColor=none;fontSize=16;" vertex="1" parent="WIyWlLk6GJQsqaUBKTNV-1">
          <mxGeometry x="440" y="571" width="50" height="30" as="geometry" />
        </mxCell>
        <mxCell id="e808V6CF4RWKdssIjrf6-38" value="initiate live();&lt;div&gt;total_frames is probably a constant. no need to initialize it here&lt;/div&gt;" style="shape=note;whiteSpace=wrap;html=1;backgroundOutline=1;darkOpacity=0.05;" vertex="1" parent="WIyWlLk6GJQsqaUBKTNV-1">
          <mxGeometry x="540" y="951" width="130" height="100" as="geometry" />
        </mxCell>
        <mxCell id="e808V6CF4RWKdssIjrf6-39" style="edgeStyle=none;curved=1;rounded=0;orthogonalLoop=1;jettySize=auto;html=1;exitX=1;exitY=0.5;exitDx=0;exitDy=0;entryX=0;entryY=0.5;entryDx=0;entryDy=0;entryPerimeter=0;fontSize=12;startSize=8;endSize=8;endArrow=none;endFill=0;dashed=1;dashPattern=8 8;" edge="1" parent="WIyWlLk6GJQsqaUBKTNV-1" source="e808V6CF4RWKdssIjrf6-35" target="e808V6CF4RWKdssIjrf6-38">
          <mxGeometry relative="1" as="geometry" />
        </mxCell>
        <mxCell id="e808V6CF4RWKdssIjrf6-45" style="edgeStyle=none;curved=1;rounded=0;orthogonalLoop=1;jettySize=auto;html=1;exitX=0.5;exitY=1;exitDx=0;exitDy=0;fontSize=12;startSize=8;endSize=8;entryX=0.5;entryY=0;entryDx=0;entryDy=0;" edge="1" parent="WIyWlLk6GJQsqaUBKTNV-1" source="e808V6CF4RWKdssIjrf6-41" target="e808V6CF4RWKdssIjrf6-55">
          <mxGeometry relative="1" as="geometry">
            <mxPoint x="390" y="1196" as="sourcePoint" />
          </mxGeometry>
        </mxCell>
        <mxCell id="e808V6CF4RWKdssIjrf6-60" style="edgeStyle=orthogonalEdgeStyle;rounded=0;orthogonalLoop=1;jettySize=auto;html=1;exitX=1;exitY=0.5;exitDx=0;exitDy=0;fontSize=12;startSize=8;endSize=8;entryX=0.5;entryY=0;entryDx=0;entryDy=0;" edge="1" parent="WIyWlLk6GJQsqaUBKTNV-1" source="e808V6CF4RWKdssIjrf6-41" target="e808V6CF4RWKdssIjrf6-64">
          <mxGeometry relative="1" as="geometry">
            <mxPoint x="390" y="1681" as="targetPoint" />
            <Array as="points">
              <mxPoint x="530" y="1121" />
              <mxPoint x="530" y="1631" />
              <mxPoint x="391" y="1631" />
              <mxPoint x="391" y="1711" />
            </Array>
          </mxGeometry>
        </mxCell>
        <mxCell id="e808V6CF4RWKdssIjrf6-41" value="current_frame&lt;br&gt;&amp;lt;&lt;br&gt;total_frames" style="rhombus;whiteSpace=wrap;html=1;" vertex="1" parent="WIyWlLk6GJQsqaUBKTNV-1">
          <mxGeometry x="335" y="1061" width="114" height="120" as="geometry" />
        </mxCell>
        <mxCell id="e808V6CF4RWKdssIjrf6-48" style="edgeStyle=none;curved=1;rounded=0;orthogonalLoop=1;jettySize=auto;html=1;exitX=0.5;exitY=1;exitDx=0;exitDy=0;entryX=0.5;entryY=0;entryDx=0;entryDy=0;fontSize=12;startSize=8;endSize=8;" edge="1" parent="WIyWlLk6GJQsqaUBKTNV-1" source="e808V6CF4RWKdssIjrf6-44" target="e808V6CF4RWKdssIjrf6-47">
          <mxGeometry relative="1" as="geometry">
            <mxPoint x="392" y="1401" as="sourcePoint" />
          </mxGeometry>
        </mxCell>
        <mxCell id="e808V6CF4RWKdssIjrf6-58" style="edgeStyle=orthogonalEdgeStyle;rounded=0;orthogonalLoop=1;jettySize=auto;html=1;exitX=0;exitY=0.5;exitDx=0;exitDy=0;entryX=0;entryY=0.5;entryDx=0;entryDy=0;fontSize=12;startSize=8;endSize=8;" edge="1" parent="WIyWlLk6GJQsqaUBKTNV-1" source="e808V6CF4RWKdssIjrf6-44" target="e808V6CF4RWKdssIjrf6-41">
          <mxGeometry relative="1" as="geometry">
            <Array as="points">
              <mxPoint x="250" y="1346" />
              <mxPoint x="250" y="1121" />
            </Array>
          </mxGeometry>
        </mxCell>
        <mxCell id="e808V6CF4RWKdssIjrf6-44" value="elem_iter &amp;lt; N" style="rhombus;whiteSpace=wrap;html=1;" vertex="1" parent="WIyWlLk6GJQsqaUBKTNV-1">
          <mxGeometry x="348" y="1301" width="88" height="90" as="geometry" />
        </mxCell>
        <mxCell id="e808V6CF4RWKdssIjrf6-46" value="No" style="text;html=1;align=center;verticalAlign=middle;resizable=0;points=[];autosize=1;strokeColor=none;fillColor=none;fontSize=16;" vertex="1" parent="WIyWlLk6GJQsqaUBKTNV-1">
          <mxGeometry x="398" y="1179" width="40" height="30" as="geometry" />
        </mxCell>
        <mxCell id="e808V6CF4RWKdssIjrf6-53" style="edgeStyle=none;curved=1;rounded=0;orthogonalLoop=1;jettySize=auto;html=1;exitX=0.5;exitY=1;exitDx=0;exitDy=0;entryX=0.5;entryY=0;entryDx=0;entryDy=0;fontSize=12;startSize=8;endSize=8;" edge="1" parent="WIyWlLk6GJQsqaUBKTNV-1" source="e808V6CF4RWKdssIjrf6-47" target="e808V6CF4RWKdssIjrf6-52">
          <mxGeometry relative="1" as="geometry" />
        </mxCell>
        <mxCell id="e808V6CF4RWKdssIjrf6-47" value="current_population[elem_iter].run()" style="rounded=0;whiteSpace=wrap;html=1;" vertex="1" parent="WIyWlLk6GJQsqaUBKTNV-1">
          <mxGeometry x="293.5" y="1421" width="197" height="60" as="geometry" />
        </mxCell>
        <mxCell id="e808V6CF4RWKdssIjrf6-56" value="" style="edgeStyle=none;curved=1;rounded=0;orthogonalLoop=1;jettySize=auto;html=1;fontSize=12;startSize=8;endSize=8;" edge="1" parent="WIyWlLk6GJQsqaUBKTNV-1" source="e808V6CF4RWKdssIjrf6-49" target="e808V6CF4RWKdssIjrf6-47">
          <mxGeometry relative="1" as="geometry" />
        </mxCell>
        <mxCell id="e808V6CF4RWKdssIjrf6-49" value="No" style="text;html=1;align=center;verticalAlign=middle;resizable=0;points=[];autosize=1;strokeColor=none;fillColor=none;fontSize=16;" vertex="1" parent="WIyWlLk6GJQsqaUBKTNV-1">
          <mxGeometry x="396" y="1391" width="40" height="30" as="geometry" />
        </mxCell>
        <mxCell id="e808V6CF4RWKdssIjrf6-50" value="Every object moves / does something via run() method. Depends on how it&#39;s coded." style="shape=note;whiteSpace=wrap;html=1;backgroundOutline=1;darkOpacity=0.05;" vertex="1" parent="WIyWlLk6GJQsqaUBKTNV-1">
          <mxGeometry x="566" y="1391" width="130" height="120" as="geometry" />
        </mxCell>
        <mxCell id="e808V6CF4RWKdssIjrf6-51" style="edgeStyle=none;curved=1;rounded=0;orthogonalLoop=1;jettySize=auto;html=1;exitX=1;exitY=0.5;exitDx=0;exitDy=0;entryX=0;entryY=0.5;entryDx=0;entryDy=0;entryPerimeter=0;fontSize=12;startSize=8;endSize=8;endArrow=none;endFill=0;dashed=1;dashPattern=8 8;" edge="1" parent="WIyWlLk6GJQsqaUBKTNV-1" source="e808V6CF4RWKdssIjrf6-47" target="e808V6CF4RWKdssIjrf6-50">
          <mxGeometry relative="1" as="geometry">
            <mxPoint x="458" y="1111" as="sourcePoint" />
            <mxPoint x="546" y="1111" as="targetPoint" />
          </mxGeometry>
        </mxCell>
        <mxCell id="e808V6CF4RWKdssIjrf6-54" style="edgeStyle=orthogonalEdgeStyle;rounded=0;orthogonalLoop=1;jettySize=auto;html=1;exitX=0;exitY=0.5;exitDx=0;exitDy=0;entryX=0;entryY=1;entryDx=0;entryDy=0;fontSize=12;startSize=8;endSize=8;" edge="1" parent="WIyWlLk6GJQsqaUBKTNV-1" source="e808V6CF4RWKdssIjrf6-52" target="e808V6CF4RWKdssIjrf6-44">
          <mxGeometry relative="1" as="geometry">
            <Array as="points">
              <mxPoint x="248" y="1566" />
              <mxPoint x="248" y="1371" />
              <mxPoint x="348" y="1371" />
              <mxPoint x="348" y="1369" />
            </Array>
          </mxGeometry>
        </mxCell>
        <mxCell id="e808V6CF4RWKdssIjrf6-52" value="elem_iter++;" style="rounded=0;whiteSpace=wrap;html=1;" vertex="1" parent="WIyWlLk6GJQsqaUBKTNV-1">
          <mxGeometry x="332" y="1536" width="120" height="60" as="geometry" />
        </mxCell>
        <mxCell id="e808V6CF4RWKdssIjrf6-57" style="edgeStyle=none;curved=1;rounded=0;orthogonalLoop=1;jettySize=auto;html=1;exitX=0.5;exitY=1;exitDx=0;exitDy=0;entryX=0.5;entryY=0;entryDx=0;entryDy=0;fontSize=12;startSize=8;endSize=8;" edge="1" parent="WIyWlLk6GJQsqaUBKTNV-1" source="e808V6CF4RWKdssIjrf6-55" target="e808V6CF4RWKdssIjrf6-44">
          <mxGeometry relative="1" as="geometry" />
        </mxCell>
        <mxCell id="e808V6CF4RWKdssIjrf6-55" value="&lt;div&gt;current_frame++;&lt;/div&gt;elem_iter = 0;" style="rounded=0;whiteSpace=wrap;html=1;" vertex="1" parent="WIyWlLk6GJQsqaUBKTNV-1">
          <mxGeometry x="332" y="1211" width="120" height="60" as="geometry" />
        </mxCell>
        <mxCell id="e808V6CF4RWKdssIjrf6-59" value="Yes" style="text;html=1;align=center;verticalAlign=middle;resizable=0;points=[];autosize=1;strokeColor=none;fillColor=none;fontSize=16;" vertex="1" parent="WIyWlLk6GJQsqaUBKTNV-1">
          <mxGeometry x="205" y="1226" width="50" height="30" as="geometry" />
        </mxCell>
        <mxCell id="e808V6CF4RWKdssIjrf6-61" value="Yes" style="text;html=1;align=center;verticalAlign=middle;resizable=0;points=[];autosize=1;strokeColor=none;fillColor=none;fontSize=16;" vertex="1" parent="WIyWlLk6GJQsqaUBKTNV-1">
          <mxGeometry x="540" y="1291" width="50" height="30" as="geometry" />
        </mxCell>
        <mxCell id="e808V6CF4RWKdssIjrf6-62" value="Step 2: Selection -Evaluate each element&#39;s fitness and normalize it." style="rounded=1;whiteSpace=wrap;html=1;fontSize=12;glass=0;strokeWidth=1;shadow=0;" vertex="1" parent="WIyWlLk6GJQsqaUBKTNV-1">
          <mxGeometry x="100" y="1661" width="140" height="60" as="geometry" />
        </mxCell>
        <mxCell id="e808V6CF4RWKdssIjrf6-66" style="edgeStyle=none;curved=1;rounded=0;orthogonalLoop=1;jettySize=auto;html=1;exitX=0.5;exitY=1;exitDx=0;exitDy=0;entryX=0.5;entryY=0;entryDx=0;entryDy=0;fontSize=12;startSize=8;endSize=8;" edge="1" parent="WIyWlLk6GJQsqaUBKTNV-1" source="e808V6CF4RWKdssIjrf6-64" target="e808V6CF4RWKdssIjrf6-65">
          <mxGeometry relative="1" as="geometry" />
        </mxCell>
        <mxCell id="e808V6CF4RWKdssIjrf6-64" value="elem_iter = 0;&lt;div&gt;int fitness_sum = 0;&lt;/div&gt;" style="rounded=0;whiteSpace=wrap;html=1;" vertex="1" parent="WIyWlLk6GJQsqaUBKTNV-1">
          <mxGeometry x="332" y="1721" width="120" height="60" as="geometry" />
        </mxCell>
        <mxCell id="e808V6CF4RWKdssIjrf6-73" style="edgeStyle=orthogonalEdgeStyle;rounded=0;orthogonalLoop=1;jettySize=auto;html=1;exitX=1;exitY=0.5;exitDx=0;exitDy=0;fontSize=12;startSize=8;endSize=8;entryX=0.5;entryY=0;entryDx=0;entryDy=0;" edge="1" parent="WIyWlLk6GJQsqaUBKTNV-1" source="e808V6CF4RWKdssIjrf6-65" target="e808V6CF4RWKdssIjrf6-75">
          <mxGeometry relative="1" as="geometry">
            <mxPoint x="790" y="2071" as="targetPoint" />
            <Array as="points">
              <mxPoint x="560" y="1861" />
              <mxPoint x="560" y="2081" />
              <mxPoint x="392" y="2081" />
            </Array>
          </mxGeometry>
        </mxCell>
        <mxCell id="e808V6CF4RWKdssIjrf6-65" value="elem_iter&lt;div&gt;&amp;lt;&lt;/div&gt;&lt;div&gt;N&lt;/div&gt;" style="rhombus;whiteSpace=wrap;html=1;" vertex="1" parent="WIyWlLk6GJQsqaUBKTNV-1">
          <mxGeometry x="342" y="1811" width="100" height="100" as="geometry" />
        </mxCell>
        <mxCell id="e808V6CF4RWKdssIjrf6-72" style="edgeStyle=orthogonalEdgeStyle;rounded=0;orthogonalLoop=1;jettySize=auto;html=1;exitX=0.5;exitY=1;exitDx=0;exitDy=0;entryX=0;entryY=0.5;entryDx=0;entryDy=0;fontSize=12;startSize=8;endSize=8;" edge="1" parent="WIyWlLk6GJQsqaUBKTNV-1" source="e808V6CF4RWKdssIjrf6-68" target="e808V6CF4RWKdssIjrf6-65">
          <mxGeometry relative="1" as="geometry">
            <Array as="points">
              <mxPoint x="392" y="2041" />
              <mxPoint x="240" y="2041" />
              <mxPoint x="240" y="1861" />
            </Array>
          </mxGeometry>
        </mxCell>
        <mxCell id="e808V6CF4RWKdssIjrf6-68" value="population[elem_iter].calculate fitness();&lt;div&gt;fitness_sum += population[elem_iter].fitness;&lt;/div&gt;&lt;div&gt;elem_iter++;&lt;/div&gt;" style="rounded=0;whiteSpace=wrap;html=1;" vertex="1" parent="WIyWlLk6GJQsqaUBKTNV-1">
          <mxGeometry x="267" y="1951" width="250" height="60" as="geometry" />
        </mxCell>
        <mxCell id="e808V6CF4RWKdssIjrf6-71" value="" style="edgeStyle=none;curved=1;rounded=0;orthogonalLoop=1;jettySize=auto;html=1;exitX=0.5;exitY=1;exitDx=0;exitDy=0;entryX=0.5;entryY=0;entryDx=0;entryDy=0;fontSize=12;startSize=8;endSize=8;" edge="1" parent="WIyWlLk6GJQsqaUBKTNV-1" source="e808V6CF4RWKdssIjrf6-65" target="e808V6CF4RWKdssIjrf6-68">
          <mxGeometry relative="1" as="geometry">
            <mxPoint x="392" y="1911" as="sourcePoint" />
            <mxPoint x="392" y="1941" as="targetPoint" />
          </mxGeometry>
        </mxCell>
        <mxCell id="e808V6CF4RWKdssIjrf6-70" value="No" style="text;html=1;align=center;verticalAlign=middle;resizable=0;points=[];autosize=1;strokeColor=none;fillColor=none;fontSize=16;" vertex="1" parent="WIyWlLk6GJQsqaUBKTNV-1">
          <mxGeometry x="402" y="1911" width="40" height="30" as="geometry" />
        </mxCell>
        <mxCell id="e808V6CF4RWKdssIjrf6-74" value="Yes" style="text;html=1;align=center;verticalAlign=middle;resizable=0;points=[];autosize=1;strokeColor=none;fillColor=none;fontSize=16;" vertex="1" parent="WIyWlLk6GJQsqaUBKTNV-1">
          <mxGeometry x="442" y="1831" width="50" height="30" as="geometry" />
        </mxCell>
        <mxCell id="e808V6CF4RWKdssIjrf6-77" style="edgeStyle=none;curved=1;rounded=0;orthogonalLoop=1;jettySize=auto;html=1;exitX=0.5;exitY=1;exitDx=0;exitDy=0;entryX=0.5;entryY=0;entryDx=0;entryDy=0;fontSize=12;startSize=8;endSize=8;" edge="1" parent="WIyWlLk6GJQsqaUBKTNV-1" source="e808V6CF4RWKdssIjrf6-75" target="e808V6CF4RWKdssIjrf6-76">
          <mxGeometry relative="1" as="geometry" />
        </mxCell>
        <mxCell id="e808V6CF4RWKdssIjrf6-75" value="elem_iter = 0;" style="rounded=0;whiteSpace=wrap;html=1;" vertex="1" parent="WIyWlLk6GJQsqaUBKTNV-1">
          <mxGeometry x="332" y="2111" width="120" height="60" as="geometry" />
        </mxCell>
        <mxCell id="e808V6CF4RWKdssIjrf6-88" style="edgeStyle=orthogonalEdgeStyle;rounded=0;orthogonalLoop=1;jettySize=auto;html=1;exitX=1;exitY=0.5;exitDx=0;exitDy=0;entryX=0.5;entryY=0;entryDx=0;entryDy=0;fontSize=12;startSize=8;endSize=8;" edge="1" parent="WIyWlLk6GJQsqaUBKTNV-1" source="e808V6CF4RWKdssIjrf6-76" target="e808V6CF4RWKdssIjrf6-87">
          <mxGeometry relative="1" as="geometry">
            <Array as="points">
              <mxPoint x="560" y="2251" />
              <mxPoint x="560" y="2431" />
              <mxPoint x="397" y="2431" />
            </Array>
          </mxGeometry>
        </mxCell>
        <mxCell id="e808V6CF4RWKdssIjrf6-76" value="elem_iter&lt;div&gt;&amp;lt;&lt;/div&gt;&lt;div&gt;N&lt;/div&gt;" style="rhombus;whiteSpace=wrap;html=1;" vertex="1" parent="WIyWlLk6GJQsqaUBKTNV-1">
          <mxGeometry x="342" y="2201" width="100" height="100" as="geometry" />
        </mxCell>
        <mxCell id="e808V6CF4RWKdssIjrf6-78" value="" style="edgeStyle=none;curved=1;rounded=0;orthogonalLoop=1;jettySize=auto;html=1;exitX=0.5;exitY=1;exitDx=0;exitDy=0;entryX=0.5;entryY=0;entryDx=0;entryDy=0;fontSize=12;startSize=8;endSize=8;" edge="1" parent="WIyWlLk6GJQsqaUBKTNV-1" source="e808V6CF4RWKdssIjrf6-76" target="e808V6CF4RWKdssIjrf6-80">
          <mxGeometry relative="1" as="geometry">
            <mxPoint x="390" y="2331" as="sourcePoint" />
            <mxPoint x="390" y="2371" as="targetPoint" />
          </mxGeometry>
        </mxCell>
        <mxCell id="e808V6CF4RWKdssIjrf6-79" value="No" style="text;html=1;align=center;verticalAlign=middle;resizable=0;points=[];autosize=1;strokeColor=none;fillColor=none;fontSize=16;" vertex="1" parent="WIyWlLk6GJQsqaUBKTNV-1">
          <mxGeometry x="400" y="2299" width="40" height="30" as="geometry" />
        </mxCell>
        <mxCell id="e808V6CF4RWKdssIjrf6-81" style="edgeStyle=orthogonalEdgeStyle;rounded=0;orthogonalLoop=1;jettySize=auto;html=1;exitX=0;exitY=0.5;exitDx=0;exitDy=0;entryX=0;entryY=0.5;entryDx=0;entryDy=0;fontSize=12;startSize=8;endSize=8;" edge="1" parent="WIyWlLk6GJQsqaUBKTNV-1" source="e808V6CF4RWKdssIjrf6-80" target="e808V6CF4RWKdssIjrf6-76">
          <mxGeometry relative="1" as="geometry">
            <Array as="points">
              <mxPoint x="240" y="2359" />
              <mxPoint x="240" y="2251" />
            </Array>
          </mxGeometry>
        </mxCell>
        <mxCell id="e808V6CF4RWKdssIjrf6-80" value="population[elem_iter].fitness /= fitness_sum;&lt;div&gt;elem_iter++;&lt;/div&gt;" style="rounded=0;whiteSpace=wrap;html=1;" vertex="1" parent="WIyWlLk6GJQsqaUBKTNV-1">
          <mxGeometry x="272" y="2329" width="240" height="60" as="geometry" />
        </mxCell>
        <mxCell id="e808V6CF4RWKdssIjrf6-82" value="This normalizes the fitness of all elements" style="shape=note;whiteSpace=wrap;html=1;backgroundOutline=1;darkOpacity=0.05;" vertex="1" parent="WIyWlLk6GJQsqaUBKTNV-1">
          <mxGeometry x="610" y="2309" width="80" height="100" as="geometry" />
        </mxCell>
        <mxCell id="e808V6CF4RWKdssIjrf6-83" style="edgeStyle=none;curved=1;rounded=0;orthogonalLoop=1;jettySize=auto;html=1;exitX=1;exitY=0.5;exitDx=0;exitDy=0;entryX=0;entryY=0.5;entryDx=0;entryDy=0;entryPerimeter=0;fontSize=12;startSize=8;endSize=8;endArrow=none;endFill=0;dashed=1;dashPattern=8 8;" edge="1" parent="WIyWlLk6GJQsqaUBKTNV-1" source="e808V6CF4RWKdssIjrf6-80" target="e808V6CF4RWKdssIjrf6-82">
          <mxGeometry relative="1" as="geometry">
            <mxPoint x="527.5" y="2391" as="sourcePoint" />
            <mxPoint x="602.5" y="2391" as="targetPoint" />
          </mxGeometry>
        </mxCell>
        <mxCell id="e808V6CF4RWKdssIjrf6-85" value="Step 3: Reproduction -&lt;br&gt;Make a new population by means of reproduction and mutation" style="rounded=1;whiteSpace=wrap;html=1;fontSize=12;glass=0;strokeWidth=1;shadow=0;" vertex="1" parent="WIyWlLk6GJQsqaUBKTNV-1">
          <mxGeometry x="100" y="2491" width="140" height="60" as="geometry" />
        </mxCell>
        <mxCell id="e808V6CF4RWKdssIjrf6-90" style="edgeStyle=none;curved=1;rounded=0;orthogonalLoop=1;jettySize=auto;html=1;exitX=0.5;exitY=1;exitDx=0;exitDy=0;entryX=0.5;entryY=0;entryDx=0;entryDy=0;fontSize=12;startSize=8;endSize=8;" edge="1" parent="WIyWlLk6GJQsqaUBKTNV-1" source="e808V6CF4RWKdssIjrf6-87" target="e808V6CF4RWKdssIjrf6-89">
          <mxGeometry relative="1" as="geometry" />
        </mxCell>
        <mxCell id="e808V6CF4RWKdssIjrf6-87" value="Elem_Obj_Type new_population[N] = {};&lt;div&gt;elem_iter = 0;&lt;/div&gt;&lt;div&gt;Elem_Obj_Type parent_1;&lt;/div&gt;&lt;div&gt;Elem_Obj_Type parent_2;&lt;br&gt;&lt;/div&gt;&lt;div&gt;Elem_Obj_Type child;&lt;/div&gt;" style="rounded=0;whiteSpace=wrap;html=1;" vertex="1" parent="WIyWlLk6GJQsqaUBKTNV-1">
          <mxGeometry x="282" y="2531" width="230" height="80" as="geometry" />
        </mxCell>
        <mxCell id="e808V6CF4RWKdssIjrf6-93" style="edgeStyle=none;curved=1;rounded=0;orthogonalLoop=1;jettySize=auto;html=1;exitX=0.5;exitY=1;exitDx=0;exitDy=0;entryX=0.5;entryY=0;entryDx=0;entryDy=0;fontSize=12;startSize=8;endSize=8;" edge="1" parent="WIyWlLk6GJQsqaUBKTNV-1" source="e808V6CF4RWKdssIjrf6-89" target="e808V6CF4RWKdssIjrf6-91">
          <mxGeometry relative="1" as="geometry" />
        </mxCell>
        <mxCell id="e808V6CF4RWKdssIjrf6-106" style="edgeStyle=orthogonalEdgeStyle;rounded=0;orthogonalLoop=1;jettySize=auto;html=1;exitX=1;exitY=0.5;exitDx=0;exitDy=0;entryX=0.5;entryY=0;entryDx=0;entryDy=0;fontSize=12;startSize=8;endSize=8;" edge="1" parent="WIyWlLk6GJQsqaUBKTNV-1" source="e808V6CF4RWKdssIjrf6-89" target="e808V6CF4RWKdssIjrf6-104">
          <mxGeometry relative="1" as="geometry">
            <Array as="points">
              <mxPoint x="580" y="2691" />
              <mxPoint x="580" y="3061" />
              <mxPoint x="397" y="3061" />
            </Array>
          </mxGeometry>
        </mxCell>
        <mxCell id="e808V6CF4RWKdssIjrf6-89" value="elem_iter&lt;div&gt;&amp;lt;&lt;/div&gt;&lt;div&gt;N&lt;/div&gt;" style="rhombus;whiteSpace=wrap;html=1;" vertex="1" parent="WIyWlLk6GJQsqaUBKTNV-1">
          <mxGeometry x="357" y="2651" width="80" height="80" as="geometry" />
        </mxCell>
        <mxCell id="e808V6CF4RWKdssIjrf6-94" style="edgeStyle=none;curved=1;rounded=0;orthogonalLoop=1;jettySize=auto;html=1;exitX=0.5;exitY=1;exitDx=0;exitDy=0;entryX=0.5;entryY=0;entryDx=0;entryDy=0;fontSize=12;startSize=8;endSize=8;" edge="1" parent="WIyWlLk6GJQsqaUBKTNV-1" source="e808V6CF4RWKdssIjrf6-91" target="e808V6CF4RWKdssIjrf6-92">
          <mxGeometry relative="1" as="geometry" />
        </mxCell>
        <mxCell id="e808V6CF4RWKdssIjrf6-91" value="parent_1 = current_population.weightedSelection();&lt;div&gt;parent_2 = current_population.weightedSelection();&lt;br&gt;&lt;/div&gt;" style="rounded=0;whiteSpace=wrap;html=1;" vertex="1" parent="WIyWlLk6GJQsqaUBKTNV-1">
          <mxGeometry x="257" y="2771" width="280" height="60" as="geometry" />
        </mxCell>
        <mxCell id="e808V6CF4RWKdssIjrf6-101" style="edgeStyle=none;curved=1;rounded=0;orthogonalLoop=1;jettySize=auto;html=1;exitX=0.5;exitY=1;exitDx=0;exitDy=0;entryX=0.5;entryY=0;entryDx=0;entryDy=0;fontSize=12;startSize=8;endSize=8;" edge="1" parent="WIyWlLk6GJQsqaUBKTNV-1" source="e808V6CF4RWKdssIjrf6-92" target="e808V6CF4RWKdssIjrf6-98">
          <mxGeometry relative="1" as="geometry" />
        </mxCell>
        <mxCell id="e808V6CF4RWKdssIjrf6-92" value="child = parent_1.crossover(parent_2);&lt;div&gt;child.mutate(mutation_rate);&lt;/div&gt;" style="rounded=0;whiteSpace=wrap;html=1;" vertex="1" parent="WIyWlLk6GJQsqaUBKTNV-1">
          <mxGeometry x="292" y="2874" width="210" height="60" as="geometry" />
        </mxCell>
        <mxCell id="e808V6CF4RWKdssIjrf6-95" value="weightedSelection()&lt;br&gt;is a configurable method to decide who gets to produce offspring.&amp;nbsp;" style="shape=note;whiteSpace=wrap;html=1;backgroundOutline=1;darkOpacity=0.05;" vertex="1" parent="WIyWlLk6GJQsqaUBKTNV-1">
          <mxGeometry x="600" y="2751" width="170" height="100" as="geometry" />
        </mxCell>
        <mxCell id="e808V6CF4RWKdssIjrf6-96" value="No" style="text;html=1;align=center;verticalAlign=middle;resizable=0;points=[];autosize=1;strokeColor=none;fillColor=none;fontSize=16;" vertex="1" parent="WIyWlLk6GJQsqaUBKTNV-1">
          <mxGeometry x="399" y="2728" width="40" height="30" as="geometry" />
        </mxCell>
        <mxCell id="e808V6CF4RWKdssIjrf6-97" value="crossover() &lt;br&gt;and mutate()&lt;br&gt;are methods to deal with producing offspring and changing the genes" style="shape=note;whiteSpace=wrap;html=1;backgroundOutline=1;darkOpacity=0.05;" vertex="1" parent="WIyWlLk6GJQsqaUBKTNV-1">
          <mxGeometry x="600" y="2854" width="170" height="100" as="geometry" />
        </mxCell>
        <mxCell id="e808V6CF4RWKdssIjrf6-102" style="edgeStyle=orthogonalEdgeStyle;rounded=0;orthogonalLoop=1;jettySize=auto;html=1;exitX=0;exitY=0.5;exitDx=0;exitDy=0;entryX=0;entryY=0.5;entryDx=0;entryDy=0;fontSize=12;startSize=8;endSize=8;" edge="1" parent="WIyWlLk6GJQsqaUBKTNV-1" source="e808V6CF4RWKdssIjrf6-98" target="e808V6CF4RWKdssIjrf6-89">
          <mxGeometry relative="1" as="geometry">
            <Array as="points">
              <mxPoint x="190" y="3007" />
              <mxPoint x="190" y="2691" />
            </Array>
          </mxGeometry>
        </mxCell>
        <mxCell id="e808V6CF4RWKdssIjrf6-98" value="new_population[elem_iter] = new Elem_Obj_Type(child);&lt;div&gt;elem_iter++;&lt;/div&gt;" style="rounded=0;whiteSpace=wrap;html=1;" vertex="1" parent="WIyWlLk6GJQsqaUBKTNV-1">
          <mxGeometry x="242" y="2977" width="310" height="60" as="geometry" />
        </mxCell>
        <mxCell id="e808V6CF4RWKdssIjrf6-99" value="there can be other parameters for the object constructor [like positioning on the field]" style="shape=note;whiteSpace=wrap;html=1;backgroundOutline=1;darkOpacity=0.05;" vertex="1" parent="WIyWlLk6GJQsqaUBKTNV-1">
          <mxGeometry x="600" y="2957" width="170" height="100" as="geometry" />
        </mxCell>
        <mxCell id="e808V6CF4RWKdssIjrf6-109" style="edgeStyle=none;curved=1;rounded=0;orthogonalLoop=1;jettySize=auto;html=1;exitX=0.5;exitY=1;exitDx=0;exitDy=0;entryX=0.5;entryY=0;entryDx=0;entryDy=0;fontSize=12;startSize=8;endSize=8;" edge="1" parent="WIyWlLk6GJQsqaUBKTNV-1" source="e808V6CF4RWKdssIjrf6-104" target="e808V6CF4RWKdssIjrf6-108">
          <mxGeometry relative="1" as="geometry" />
        </mxCell>
        <mxCell id="e808V6CF4RWKdssIjrf6-104" value="*current_population = *new_population;" style="rounded=0;whiteSpace=wrap;html=1;" vertex="1" parent="WIyWlLk6GJQsqaUBKTNV-1">
          <mxGeometry x="282" y="3081" width="230" height="60" as="geometry" />
        </mxCell>
        <mxCell id="e808V6CF4RWKdssIjrf6-107" value="Yes" style="text;html=1;align=center;verticalAlign=middle;resizable=0;points=[];autosize=1;strokeColor=none;fillColor=none;fontSize=16;" vertex="1" parent="WIyWlLk6GJQsqaUBKTNV-1">
          <mxGeometry x="431" y="2691" width="50" height="30" as="geometry" />
        </mxCell>
        <mxCell id="e808V6CF4RWKdssIjrf6-108" value="GOTO&lt;div&gt;Step 1.5&lt;/div&gt;&lt;div&gt;OR&lt;/div&gt;&lt;div&gt;Step 2&lt;/div&gt;" style="ellipse;whiteSpace=wrap;html=1;aspect=fixed;" vertex="1" parent="WIyWlLk6GJQsqaUBKTNV-1">
          <mxGeometry x="357" y="3181" width="80" height="80" as="geometry" />
        </mxCell>
      </root>
    </mxGraphModel>
  </diagram>
</mxfile>
